<svg class="drawing-animation" width="100%" height="100%" viewBox="280 0 5800 1050" style="transform: scale(1.4);"><defs style="transition: none 0s ease 0s;"><linearGradient id="gradiant" x1="0%" y1="0%" x2="100%" y2="0%" style="transition: none 0s ease 0s;"><stop offset="0%" stop-color="#4b065b" style="transition: none 0s ease 0s;"></stop><stop offset="20%" stop-color="#4b065b" style="transition: none 0s ease 0s;"></stop><stop offset="40%" stop-color="#ff5751" style="transition: none 0s ease 0s;"></stop><stop offset="60%" stop-color="#de3486" style="transition: none 0s ease 0s;"></stop><stop offset="80%" stop-color="#480095" style="transition: none 0s ease 0s;"></stop><stop offset="100%" stop-color="#380075" style="transition: none 0s ease 0s;"></stop></linearGradient></defs><g style="transform: translateX(443px); transition: none 0s ease 0s;"><path fill="none" stroke="url(#gradiant)" d="M-11,418c118-76,269-119,416-120,540-3,719,538,1180,682,385,120,973,0,877-510-29-155-127-293-259-375-247-154-575-73-710,134-147,225-24,525,203,644,170,88,390,88,575,12C2775,675,3164,9,3693,170c330,99,425,481,199,728-177,192-506,187-627-45-145-280,78-542,354-564,226-17,344,112,465,231,92,89,203,150,320,176,218,49,365-35,522-132" style="transition: none 0s ease 0s;"></path></g></svg> 